G04 MADE WITH FRITZING*
G04 WWW.FRITZING.ORG*
G04 DOUBLE SIDED*
G04 HOLES PLATED*
G04 CONTOUR ON CENTER OF CONTOUR VECTOR*
%ASAXBY*%
%FSLAX23Y23*%
%MOIN*%
%OFA0B0*%
%SFA1.0B1.0*%
%ADD10C,0.094488*%
%ADD11C,0.074000*%
%ADD12C,0.071889*%
%ADD13C,0.071917*%
%ADD14C,0.024000*%
%ADD15R,0.001000X0.001000*%
%LNCOPPER1*%
G90*
G70*
G54D10*
X174Y564D03*
X574Y1064D03*
X74Y64D03*
G54D11*
X674Y264D03*
X574Y274D03*
X474Y264D03*
X374Y274D03*
X674Y264D03*
X574Y274D03*
X474Y264D03*
X374Y274D03*
G54D12*
X174Y1264D03*
X274Y1264D03*
X374Y1264D03*
X474Y1264D03*
G54D13*
X574Y1264D03*
G54D12*
X674Y1264D03*
X774Y1264D03*
X874Y1264D03*
X974Y1264D03*
G54D13*
X1074Y1264D03*
G54D12*
X1174Y1264D03*
G54D13*
X1274Y1264D03*
G54D12*
X1374Y1264D03*
X1474Y1264D03*
X1574Y1264D03*
X1674Y1264D03*
G54D13*
X1774Y1264D03*
G54D12*
X1874Y1264D03*
X1974Y1264D03*
X2074Y1264D03*
X2074Y1364D03*
X1974Y1364D03*
X1874Y1364D03*
G54D13*
X1774Y1364D03*
G54D12*
X1674Y1364D03*
X1574Y1364D03*
X1474Y1364D03*
X1374Y1364D03*
G54D13*
X1274Y1364D03*
G54D12*
X1174Y1364D03*
G54D13*
X1074Y1364D03*
G54D12*
X974Y1364D03*
X874Y1364D03*
X774Y1364D03*
X674Y1364D03*
G54D13*
X574Y1364D03*
G54D12*
X474Y1364D03*
X374Y1364D03*
X274Y1364D03*
X174Y1364D03*
G54D10*
X274Y964D03*
G54D14*
X201Y564D02*
X373Y562D01*
D02*
X372Y563D02*
X374Y1231D01*
D02*
X373Y562D02*
X372Y563D01*
D02*
X72Y366D02*
X72Y863D01*
D02*
X72Y1466D02*
X273Y1466D01*
D02*
X273Y1466D02*
X274Y1397D01*
D02*
X72Y863D02*
X72Y1466D01*
D02*
X74Y91D02*
X72Y366D01*
D02*
X274Y1231D02*
X274Y991D01*
D02*
X574Y1231D02*
X574Y1091D01*
G54D15*
X637Y302D02*
X709Y302D01*
X637Y301D02*
X710Y301D01*
X637Y300D02*
X710Y300D01*
X637Y299D02*
X710Y299D01*
X637Y298D02*
X710Y298D01*
X637Y297D02*
X710Y297D01*
X637Y296D02*
X710Y296D01*
X637Y295D02*
X710Y295D01*
X637Y294D02*
X710Y294D01*
X637Y293D02*
X710Y293D01*
X637Y292D02*
X710Y292D01*
X637Y291D02*
X710Y291D01*
X637Y290D02*
X710Y290D01*
X637Y289D02*
X710Y289D01*
X637Y288D02*
X710Y288D01*
X637Y287D02*
X710Y287D01*
X637Y286D02*
X710Y286D01*
X637Y285D02*
X670Y285D01*
X676Y285D02*
X710Y285D01*
X637Y284D02*
X666Y284D01*
X680Y284D02*
X710Y284D01*
X637Y283D02*
X664Y283D01*
X683Y283D02*
X710Y283D01*
X637Y282D02*
X662Y282D01*
X684Y282D02*
X710Y282D01*
X637Y281D02*
X660Y281D01*
X686Y281D02*
X710Y281D01*
X637Y280D02*
X659Y280D01*
X687Y280D02*
X710Y280D01*
X637Y279D02*
X658Y279D01*
X688Y279D02*
X710Y279D01*
X637Y278D02*
X657Y278D01*
X689Y278D02*
X710Y278D01*
X637Y277D02*
X657Y277D01*
X690Y277D02*
X710Y277D01*
X637Y276D02*
X656Y276D01*
X690Y276D02*
X710Y276D01*
X637Y275D02*
X655Y275D01*
X691Y275D02*
X710Y275D01*
X637Y274D02*
X655Y274D01*
X691Y274D02*
X710Y274D01*
X637Y273D02*
X654Y273D01*
X692Y273D02*
X710Y273D01*
X637Y272D02*
X654Y272D01*
X692Y272D02*
X710Y272D01*
X637Y271D02*
X654Y271D01*
X693Y271D02*
X710Y271D01*
X637Y270D02*
X653Y270D01*
X693Y270D02*
X710Y270D01*
X637Y269D02*
X653Y269D01*
X693Y269D02*
X710Y269D01*
X637Y268D02*
X653Y268D01*
X693Y268D02*
X710Y268D01*
X637Y267D02*
X653Y267D01*
X693Y267D02*
X710Y267D01*
X637Y266D02*
X653Y266D01*
X694Y266D02*
X710Y266D01*
X637Y265D02*
X653Y265D01*
X694Y265D02*
X710Y265D01*
X637Y264D02*
X653Y264D01*
X693Y264D02*
X710Y264D01*
X637Y263D02*
X653Y263D01*
X693Y263D02*
X710Y263D01*
X637Y262D02*
X653Y262D01*
X693Y262D02*
X710Y262D01*
X637Y261D02*
X653Y261D01*
X693Y261D02*
X710Y261D01*
X637Y260D02*
X653Y260D01*
X693Y260D02*
X710Y260D01*
X637Y259D02*
X654Y259D01*
X693Y259D02*
X710Y259D01*
X637Y258D02*
X654Y258D01*
X692Y258D02*
X710Y258D01*
X637Y257D02*
X654Y257D01*
X692Y257D02*
X710Y257D01*
X637Y256D02*
X655Y256D01*
X691Y256D02*
X710Y256D01*
X637Y255D02*
X656Y255D01*
X691Y255D02*
X710Y255D01*
X637Y254D02*
X656Y254D01*
X690Y254D02*
X710Y254D01*
X637Y253D02*
X657Y253D01*
X689Y253D02*
X710Y253D01*
X637Y252D02*
X658Y252D01*
X688Y252D02*
X710Y252D01*
X637Y251D02*
X659Y251D01*
X688Y251D02*
X710Y251D01*
X637Y250D02*
X660Y250D01*
X686Y250D02*
X710Y250D01*
X637Y249D02*
X661Y249D01*
X685Y249D02*
X710Y249D01*
X637Y248D02*
X663Y248D01*
X684Y248D02*
X710Y248D01*
X637Y247D02*
X664Y247D01*
X682Y247D02*
X710Y247D01*
X637Y246D02*
X667Y246D01*
X679Y246D02*
X710Y246D01*
X637Y245D02*
X710Y245D01*
X637Y244D02*
X710Y244D01*
X637Y243D02*
X710Y243D01*
X637Y242D02*
X710Y242D01*
X637Y241D02*
X710Y241D01*
X637Y240D02*
X710Y240D01*
X637Y239D02*
X710Y239D01*
X637Y238D02*
X710Y238D01*
X637Y237D02*
X710Y237D01*
X637Y236D02*
X710Y236D01*
X637Y235D02*
X710Y235D01*
X637Y234D02*
X710Y234D01*
X637Y233D02*
X710Y233D01*
X637Y232D02*
X710Y232D01*
X637Y231D02*
X710Y231D01*
X637Y230D02*
X710Y230D01*
X637Y229D02*
X710Y229D01*
D02*
G04 End of Copper1*
M02*