; NON-PLATED HOLES START AT T1
; THROUGH (PLATED) HOLES START AT T100
M48
INCH
T100C0.044139
T101C0.040000
T102C0.031496
T103C0.044111
%
T100
X010738Y012638
X010738Y013638
X012738Y012638
X012738Y013638
X005738Y012638
X005738Y013638
X017738Y013638
X017738Y012638
T101
X006738Y002638
X004738Y002638
X005738Y002738
X003738Y002738
T102
X000738Y000638
X005738Y010638
X002738Y009638
X001738Y005638
T103
X008738Y013638
X016738Y013638
X001738Y012638
X013738Y012638
X015739Y013638
X004738Y012638
X011738Y013638
X002738Y012638
X003738Y013638
X018738Y013638
X019738Y013638
X004738Y013638
X009738Y013638
X020739Y012638
X018738Y012638
X003738Y012638
X007738Y012638
X008738Y012638
X019738Y012638
X006738Y013638
X002738Y013638
X001738Y013638
X020739Y013638
X015739Y012638
X009738Y012638
X011738Y012638
X016738Y012638
X014738Y012638
X014738Y013638
X006738Y012638
X007738Y013638
X013738Y013638
T00
M30
