G04 MADE WITH FRITZING*
G04 WWW.FRITZING.ORG*
G04 DOUBLE SIDED*
G04 HOLES PLATED*
G04 CONTOUR ON CENTER OF CONTOUR VECTOR*
%ASAXBY*%
%FSLAX23Y23*%
%MOIN*%
%OFA0B0*%
%SFA1.0B1.0*%
%ADD10C,0.104488*%
%ADD11C,0.084000*%
%ADD12C,0.081889*%
%ADD13C,0.081917*%
%ADD14R,0.001000X0.001000*%
%LNMASK1*%
G90*
G70*
G54D10*
X174Y564D03*
X574Y1064D03*
X74Y64D03*
G54D11*
X674Y264D03*
X574Y274D03*
X474Y264D03*
X374Y274D03*
X674Y264D03*
X574Y274D03*
X474Y264D03*
X374Y274D03*
G54D12*
X174Y1264D03*
X274Y1264D03*
X374Y1264D03*
X474Y1264D03*
G54D13*
X574Y1264D03*
G54D12*
X674Y1264D03*
X774Y1264D03*
X874Y1264D03*
X974Y1264D03*
G54D13*
X1074Y1264D03*
G54D12*
X1174Y1264D03*
G54D13*
X1274Y1264D03*
G54D12*
X1374Y1264D03*
X1474Y1264D03*
X1574Y1264D03*
X1674Y1264D03*
G54D13*
X1774Y1264D03*
G54D12*
X1874Y1264D03*
X1974Y1264D03*
X2074Y1264D03*
X2074Y1364D03*
X1974Y1364D03*
X1874Y1364D03*
G54D13*
X1774Y1364D03*
G54D12*
X1674Y1364D03*
X1574Y1364D03*
X1474Y1364D03*
X1374Y1364D03*
G54D13*
X1274Y1364D03*
G54D12*
X1174Y1364D03*
G54D13*
X1074Y1364D03*
G54D12*
X974Y1364D03*
X874Y1364D03*
X774Y1364D03*
X674Y1364D03*
G54D13*
X574Y1364D03*
G54D12*
X474Y1364D03*
X374Y1364D03*
X274Y1364D03*
X174Y1364D03*
G54D10*
X274Y964D03*
G54D14*
X632Y307D02*
X714Y307D01*
X632Y306D02*
X715Y306D01*
X632Y305D02*
X715Y305D01*
X632Y304D02*
X715Y304D01*
X632Y303D02*
X715Y303D01*
X632Y302D02*
X715Y302D01*
X632Y301D02*
X715Y301D01*
X632Y300D02*
X715Y300D01*
X632Y299D02*
X715Y299D01*
X632Y298D02*
X715Y298D01*
X632Y297D02*
X715Y297D01*
X632Y296D02*
X715Y296D01*
X632Y295D02*
X715Y295D01*
X632Y294D02*
X715Y294D01*
X632Y293D02*
X715Y293D01*
X632Y292D02*
X715Y292D01*
X632Y291D02*
X715Y291D01*
X632Y290D02*
X715Y290D01*
X632Y289D02*
X715Y289D01*
X632Y288D02*
X715Y288D01*
X632Y287D02*
X715Y287D01*
X632Y286D02*
X715Y286D01*
X632Y285D02*
X715Y285D01*
X632Y284D02*
X715Y284D01*
X632Y283D02*
X715Y283D01*
X632Y282D02*
X715Y282D01*
X632Y281D02*
X715Y281D01*
X632Y280D02*
X670Y280D01*
X676Y280D02*
X715Y280D01*
X632Y279D02*
X667Y279D01*
X680Y279D02*
X715Y279D01*
X632Y278D02*
X665Y278D01*
X682Y278D02*
X715Y278D01*
X632Y277D02*
X663Y277D01*
X683Y277D02*
X715Y277D01*
X632Y276D02*
X662Y276D01*
X684Y276D02*
X715Y276D01*
X632Y275D02*
X661Y275D01*
X685Y275D02*
X715Y275D01*
X632Y274D02*
X660Y274D01*
X686Y274D02*
X715Y274D01*
X632Y273D02*
X660Y273D01*
X686Y273D02*
X715Y273D01*
X632Y272D02*
X659Y272D01*
X687Y272D02*
X715Y272D01*
X632Y271D02*
X659Y271D01*
X688Y271D02*
X715Y271D01*
X632Y270D02*
X658Y270D01*
X688Y270D02*
X715Y270D01*
X632Y269D02*
X658Y269D01*
X688Y269D02*
X715Y269D01*
X632Y268D02*
X658Y268D01*
X688Y268D02*
X715Y268D01*
X632Y267D02*
X658Y267D01*
X688Y267D02*
X715Y267D01*
X632Y266D02*
X658Y266D01*
X689Y266D02*
X715Y266D01*
X632Y265D02*
X658Y265D01*
X689Y265D02*
X715Y265D01*
X632Y264D02*
X658Y264D01*
X688Y264D02*
X715Y264D01*
X632Y263D02*
X658Y263D01*
X688Y263D02*
X715Y263D01*
X632Y262D02*
X658Y262D01*
X688Y262D02*
X715Y262D01*
X632Y261D02*
X658Y261D01*
X688Y261D02*
X715Y261D01*
X632Y260D02*
X659Y260D01*
X688Y260D02*
X715Y260D01*
X632Y259D02*
X659Y259D01*
X687Y259D02*
X715Y259D01*
X632Y258D02*
X659Y258D01*
X687Y258D02*
X715Y258D01*
X632Y257D02*
X660Y257D01*
X686Y257D02*
X715Y257D01*
X632Y256D02*
X661Y256D01*
X685Y256D02*
X715Y256D01*
X632Y255D02*
X662Y255D01*
X684Y255D02*
X715Y255D01*
X632Y254D02*
X663Y254D01*
X683Y254D02*
X715Y254D01*
X632Y253D02*
X664Y253D01*
X682Y253D02*
X715Y253D01*
X632Y252D02*
X666Y252D01*
X681Y252D02*
X715Y252D01*
X632Y251D02*
X668Y251D01*
X678Y251D02*
X715Y251D01*
X632Y250D02*
X715Y250D01*
X632Y249D02*
X715Y249D01*
X632Y248D02*
X715Y248D01*
X632Y247D02*
X715Y247D01*
X632Y246D02*
X715Y246D01*
X632Y245D02*
X715Y245D01*
X632Y244D02*
X715Y244D01*
X632Y243D02*
X715Y243D01*
X632Y242D02*
X715Y242D01*
X632Y241D02*
X715Y241D01*
X632Y240D02*
X715Y240D01*
X632Y239D02*
X715Y239D01*
X632Y238D02*
X715Y238D01*
X632Y237D02*
X715Y237D01*
X632Y236D02*
X715Y236D01*
X632Y235D02*
X715Y235D01*
X632Y234D02*
X715Y234D01*
X632Y233D02*
X715Y233D01*
X632Y232D02*
X715Y232D01*
X632Y231D02*
X715Y231D01*
X632Y230D02*
X715Y230D01*
X632Y229D02*
X715Y229D01*
X632Y228D02*
X715Y228D01*
X632Y227D02*
X715Y227D01*
X632Y226D02*
X715Y226D01*
X632Y225D02*
X715Y225D01*
X632Y224D02*
X715Y224D01*
D02*
G04 End of Mask1*
M02*